HIERARCHY
ROOT SpineBase
{
  OFFSET 0.000000 0.000000 0.000000
  CHANNELS 6 Xposition Yposition Zposition Zrotation Xrotation Yrotation
  JOINT SpineMid
  {
    OFFSET 0.000000 32.136942 0.000000
    CHANNELS 3 Zrotation Xrotation Yrotation
    JOINT SpineShoulder
    {
      OFFSET 0.308815 23.958762 -0.731849
      CHANNELS 3 Zrotation Xrotation Yrotation
      JOINT Neck
      {
        OFFSET 0.214572 7.950864 -0.561218
        CHANNELS 3 Zrotation Xrotation Yrotation
        JOINT Head
        {
          OFFSET 4.399217 12.407418 2.884183
          CHANNELS 3 Zrotation Xrotation Yrotation
          End Site
          {
            OFFSET 0 0 0
          }
        }
      }
      JOINT ShoulderLeft
      {
        OFFSET -7.946724 -0.670958 -13.822087
        CHANNELS 3 Zrotation Xrotation Yrotation
        JOINT ElbowLeft
        {
          OFFSET -3.525775 -23.835067 -6.760708
          CHANNELS 3 Zrotation Xrotation Yrotation
          JOINT WristLeft
          {
            OFFSET 5.018362 -19.413494 -0.573926
            CHANNELS 3 Zrotation Xrotation Yrotation
            JOINT HandLeft
            {
              OFFSET 1.437773 -6.183045 1.868264
              CHANNELS 3 Zrotation Xrotation Yrotation
              JOINT HandTipLeft
              {
                OFFSET 1.711836 -7.967573 -1.853468
                CHANNELS 3 Zrotation Xrotation Yrotation
                End Site
                {
                  OFFSET 0 0 0
                }
              }
              JOINT ThumbLeft
              {
                OFFSET -0.209841 -4.139376 -2.548050
                CHANNELS 3 Zrotation Xrotation Yrotation
                End Site
                {
                  OFFSET 0 0 0
                }
              }
            }
          }
        }
      }
      JOINT ShoulderRight
      {
        OFFSET 10.302061 -3.378601 14.634896
        CHANNELS 3 Zrotation Xrotation Yrotation
        JOINT ElbowRight
        {
          OFFSET 1.545877 -25.260866 5.805185
          CHANNELS 3 Zrotation Xrotation Yrotation
          JOINT WristRight
          {
            OFFSET 3.077139 -25.809107 -4.271673
            CHANNELS 3 Zrotation Xrotation Yrotation
            JOINT HandRight
            {
              OFFSET -0.538180 -4.931713 -1.529625
              CHANNELS 3 Zrotation Xrotation Yrotation
              JOINT HandTipRight
              {
                OFFSET -0.522658 -3.836419 -3.265177
                CHANNELS 3 Zrotation Xrotation Yrotation
                End Site
                {
                  OFFSET 0 0 0
                }
              }
              JOINT ThumbRight
              {
                OFFSET -1.296518 2.397072 -3.650685
                CHANNELS 3 Zrotation Xrotation Yrotation
                End Site
                {
                  OFFSET 0 0 0
                }
              }
            }
          }
        }
      }
    }
  }
  JOINT HipLeft
  {
    OFFSET -2.928096 2.285571 -8.697194
    CHANNELS 3 Zrotation Xrotation Yrotation
    JOINT KneeLeft
    {
      OFFSET -8.082786 -30.551995 -4.684594
      CHANNELS 3 Zrotation Xrotation Yrotation
      JOINT AnkleLeft
      {
        OFFSET -6.031162 -38.264380 3.821663
        CHANNELS 3 Zrotation Xrotation Yrotation
        JOINT FootLeft
        {
          OFFSET 9.546128 -2.966483 -8.833400
          CHANNELS 3 Zrotation Xrotation Yrotation
          End Site
          {
            OFFSET 0 0 0
          }
        }
      }
    }
  }
  JOINT HipRight
  {
    OFFSET 5.094544 -0.029765 1.866800
    CHANNELS 3 Zrotation Xrotation Yrotation
    JOINT KneeRight
    {
      OFFSET -0.943485 -30.198775 2.418137
      CHANNELS 3 Zrotation Xrotation Yrotation
      JOINT AnkleRight
      {
        OFFSET -4.030440 -37.693935 6.122499
        CHANNELS 3 Zrotation Xrotation Yrotation
        JOINT FootRight
        {
          OFFSET 6.181135 -5.996098 -4.041176
          CHANNELS 3 Zrotation Xrotation Yrotation
          End Site
          {
            OFFSET 0 0 0
          }
        }
      }
    }
  }
}
MOTION
Frames: 14
Frame Time: 0.033333
-103.468297 83.295407 330.963561 -0.000000 0.000000 -52.785782 -0.000000 0.000000 52.785782 -0.000000 0.000000 0.000000 -0.000000 0.000000 0.000000 0.000000 0.000000 0.000000 -0.000000 0.000000 0.000000 -0.000000 0.000000 0.000000 -0.000000 0.000000 0.000000 -0.000000 0.000000 0.000000 0.000000 0.000000 0.000000 0.000000 0.000000 0.000000 -0.000000 0.000000 0.000000 -0.000000 0.000000 0.000000 -0.000000 0.000000 0.000000 -0.000000 0.000000 0.000000 0.000000 0.000000 0.000000 0.000000 0.000000 0.000000 -0.000000 0.000000 52.785782 -0.000000 0.000000 0.000000 -0.000000 0.000000 0.000000 0.000000 0.000000 0.000000 -0.000000 0.000000 52.785782 -0.000000 0.000000 0.000000 -0.000000 0.000000 0.000000 0.000000 0.000000 0.000000
-103.102971 83.329796 331.247814 -0.067524 0.256781 -52.466567 0.244765 -0.102890 52.466938 -0.000000 0.000000 0.000000 -0.000000 0.000000 0.000000 0.000000 0.000000 0.000000 -0.000000 0.000000 0.000000 -0.000000 0.000000 0.000000 -1.088111 -0.864055 -0.537883 3.245751 0.858195 -0.020524 0.000000 0.000000 0.000000 0.000000 0.000000 0.000000 -0.446137 1.224519 -0.022882 0.446728 -1.224304 0.032423 -0.449323 -1.102714 0.256032 1.828628 -9.109819 0.037181 0.000000 0.000000 0.000000 0.000000 0.000000 0.000000 0.244765 -0.102890 52.466938 -0.000000 0.000000 0.000000 -0.000000 0.000000 0.000000 0.000000 0.000000 0.000000 0.244765 -0.102890 52.466938 -0.000000 0.000000 0.000000 -3.710225 -3.328424 -1.096545 0.000000 0.000000 0.000000
-102.761591 83.359414 331.526770 -0.134789 0.480387 -52.207008 0.462219 -0.187868 52.208331 -0.000000 0.000000 0.000000 -0.000000 0.000000 0.000000 0.000000 0.000000 0.000000 -0.000000 0.000000 0.000000 1.406730 0.081356 -0.021489 -3.463553 -1.557192 -0.974825 5.929839 1.514779 -0.076572 0.000000 0.000000 0.000000 0.000000 0.000000 0.000000 -0.819357 2.223702 -0.036476 0.821390 -2.222953 0.068314 -0.733380 -2.006820 0.435704 3.054785 -15.911518 0.285027 0.000000 0.000000 0.000000 0.000000 0.000000 0.000000 0.462219 -0.187868 52.208331 -0.000000 0.000000 0.000000 -0.000000 0.000000 0.000000 0.000000 0.000000 0.000000 0.462219 -0.187868 52.208331 -0.000000 0.000000 0.000000 -7.136257 -6.173818 -2.156825 0.000000 0.000000 0.000000
-102.444157 83.384261 331.800429 -0.201789 0.670747 -52.005698 0.652819 -0.253866 52.008326 -0.000000 0.000000 0.000000 0.011336 -0.836208 0.294451 0.000000 0.000000 0.000000 0.274524 -0.868357 0.052798 1.563473 1.061485 -0.083486 -4.672363 -1.966190 -1.322924 7.990294 1.887943 -0.150927 0.000000 0.000000 0.000000 0.000000 0.000000 0.000000 -1.120000 2.997878 -0.044882 1.123884 -2.996425 0.103586 -0.801583 -2.610030 0.518500 3.734802 -20.871709 0.686310 0.000000 0.000000 0.000000 0.000000 0.000000 0.000000 0.652819 -0.253866 52.008326 -0.000000 0.000000 0.000000 -0.000000 0.000000 0.000000 0.000000 0.000000 0.000000 -0.359347 -0.589169 51.911340 -0.058767 -0.112350 -0.116564 -9.184586 -8.968249 -2.944450 0.000000 0.000000 0.000000
-102.150669 83.404335 332.068793 -0.268515 0.827799 -51.861509 0.077321 0.105947 51.849405 0.074813 -0.018601 -0.010931 -0.033727 -1.704336 0.363550 0.000000 0.000000 0.000000 0.359865 -1.830266 0.100237 1.795833 1.370330 -0.077285 -5.453312 -2.069159 -1.526323 9.373639 1.922021 -0.226596 0.000000 0.000000 0.000000 0.000000 0.000000 0.000000 -1.286005 2.733687 -0.043646 1.354141 -3.545659 0.135014 -0.616219 -2.823267 0.487536 3.922703 -24.514609 1.241938 0.000000 0.000000 0.000000 0.000000 0.000000 0.000000 -0.098367 -0.464289 51.802487 0.023813 -0.006959 -0.106211 0.673339 -0.339372 1.024955 0.000000 0.000000 0.000000 -0.492135 -0.691237 51.740241 -0.092085 -0.136859 -0.153935 -11.416851 -10.856492 -3.598630 0.000000 0.000000 0.000000
-101.881127 83.419639 332.331859 -0.334962 0.951492 -51.773577 0.087721 0.117584 51.759428 0.083538 -0.021606 -0.013864 -0.155794 -1.766700 0.383732 0.000000 0.000000 0.000000 0.389207 -2.027566 0.122594 1.889529 1.656013 -0.049591 -5.771588 -1.859253 -1.564683 10.042444 1.599258 -0.292640 0.000000 0.000000 0.000000 0.000000 0.000000 0.000000 -1.400250 2.940301 -0.049276 1.512110 -3.871629 0.160234 -0.163209 -2.593120 0.332233 3.665263 -27.244182 1.963229 0.000000 0.000000 0.000000 0.000000 0.000000 0.000000 -0.071116 -0.521034 51.711313 -0.082933 0.165500 -0.160017 0.868682 -0.544386 1.207408 0.000000 0.000000 0.000000 -0.632569 -0.748059 51.628136 -0.127615 -0.156719 -0.189840 -13.093641 -12.160003 -3.928644 0.000000 0.000000 0.000000
-101.633391 83.437713 332.607704 -0.391500 1.044447 -51.821769 0.090299 0.121724 51.805785 0.085009 -0.021789 -0.017073 -0.344497 -1.658810 0.368569 0.000000 0.000000 0.000000 0.430678 -2.111221 0.130553 1.810352 1.909114 0.016972 -5.511653 -0.492351 -1.176066 10.251486 0.815088 -0.420297 0.000000 0.000000 0.000000 0.000000 0.000000 0.000000 -1.507848 2.851868 -0.078792 1.672386 -3.875145 0.201952 1.553768 -0.599793 -0.409630 2.596550 -32.884357 3.908786 0.000000 0.000000 0.000000 0.000000 0.000000 0.000000 0.024002 -0.568027 51.768184 -0.301953 0.519184 -0.244979 1.119908 -0.873365 1.344285 0.000000 0.000000 0.000000 -0.822306 -0.740960 51.653431 -0.143152 -0.196432 -0.221998 -17.203824 -14.724146 -4.730660 0.000000 0.000000 0.000000
-101.407812 83.447028 332.889000 -0.454107 1.089228 -51.914698 0.103043 0.124719 51.897502 0.090166 -0.026489 -0.019135 -0.611945 -1.348969 0.319344 0.000000 0.000000 0.000000 0.393797 -2.105955 0.151422 1.718208 2.215766 0.091565 -4.819749 0.641548 -0.749288 8.648034 -1.371313 -0.571210 0.000000 0.000000 0.000000 0.000000 0.000000 0.000000 -1.402810 2.718016 -0.070231 1.613633 -3.773347 0.191397 2.595784 0.866886 -0.919588 0.808132 -33.452212 5.119025 0.000000 0.000000 0.000000 0.000000 0.000000 0.000000 0.076807 -0.565753 51.864923 -0.525145 0.857113 -0.323356 1.364864 -1.217224 1.449493 0.000000 0.000000 0.000000 -1.033039 -0.647917 51.728611 -0.172660 -0.277959 -0.250630 -12.369056 -9.692815 -0.033584 0.000000 0.000000 0.000000
-101.203010 83.439214 333.142240 -0.505085 1.089597 -51.970890 0.105611 0.118197 51.952529 0.087056 -0.029742 -0.021424 -0.839522 -0.962949 0.253798 0.000000 0.000000 0.000000 0.311678 -1.968594 0.172476 1.260916 2.469064 0.201243 -3.283227 1.889794 -0.176965 6.416825 -2.687875 -0.763631 0.000000 0.000000 0.000000 0.000000 0.000000 0.000000 -1.199311 2.288346 -0.066617 1.466113 -3.335133 0.174172 3.180880 0.621938 -1.073392 0.536518 -34.064480 5.398360 0.000000 0.000000 0.000000 0.000000 0.000000 0.000000 0.107380 -0.548750 51.928113 -0.735423 1.189064 -0.397644 3.233144 -0.174866 0.949674 0.000000 0.000000 0.000000 -1.215688 -0.579536 51.770793 -0.231172 -0.284165 -0.284387 -13.286956 -11.389532 -1.434174 0.000000 0.000000 0.000000
-101.017421 83.435903 333.331578 -0.577473 1.094696 -52.021135 0.089013 0.107542 52.000440 0.077943 -0.025264 -0.026087 -0.941581 -0.716468 0.215163 0.000000 0.000000 0.000000 0.360965 -1.065070 0.057545 0.677139 1.956003 0.473131 -2.289957 0.685944 -0.392538 5.405593 -1.784243 -0.633220 0.000000 0.000000 0.000000 0.000000 0.000000 0.000000 -1.061339 1.911109 -0.076884 0.930155 -1.618783 0.405087 4.174723 -0.415922 -1.428360 -0.674551 -31.479093 5.337152 0.000000 0.000000 0.000000 0.000000 0.000000 0.000000 0.198062 -0.541734 51.997489 -0.930682 1.544648 -0.475471 1.347865 -2.203984 1.786896 0.000000 0.000000 0.000000 -1.341843 -0.537940 51.808668 -0.258275 -0.280378 -0.309767 -13.263575 -11.405516 -1.161793 0.000000 0.000000 0.000000
-100.845992 83.427728 333.506006 -0.655326 1.101823 -52.032215 0.081548 0.098228 52.009373 0.073070 -0.025097 -0.030197 -1.128077 -0.332400 0.150358 0.000000 0.000000 0.000000 0.455766 -1.072348 0.065340 0.183894 2.155977 0.547950 -1.664112 0.777449 -0.341687 3.929032 -2.652722 -0.581845 0.000000 0.000000 0.000000 0.000000 0.000000 0.000000 -0.935233 1.517324 -0.090661 0.820241 -0.917343 0.468504 4.542313 -0.548892 -1.566634 -1.111567 -30.171600 5.183517 0.000000 0.000000 0.000000 0.000000 0.000000 0.000000 0.230309 -0.508324 52.013748 -1.077741 1.792694 -0.531093 -0.241283 -3.954292 2.462304 0.000000 0.000000 0.000000 -1.424541 -0.557509 51.806546 -0.217792 -0.184891 -0.327758 -13.381140 -11.424789 -0.806315 0.000000 0.000000 0.000000
-100.706728 83.412471 333.635642 -0.740019 1.122438 -52.021606 0.077598 0.100212 51.996818 0.074269 -0.024496 -0.033897 -1.366642 -0.159632 0.160818 0.000000 0.000000 0.000000 0.540279 -1.097766 0.072899 -0.414760 2.452337 0.655353 -1.049389 -1.803780 -0.980950 2.499216 -1.630487 -0.142026 0.000000 0.000000 0.000000 0.000000 0.000000 0.000000 -0.925503 1.215628 -0.121202 0.919481 -0.478363 0.520046 3.985543 -0.949324 -1.384093 -1.132788 -28.854142 4.986986 0.000000 0.000000 0.000000 0.000000 0.000000 0.000000 0.265258 -0.499275 52.012876 -1.126909 1.988182 -0.576148 0.376752 -3.728226 2.279657 0.000000 0.000000 0.000000 -1.456278 -0.628615 51.782400 -0.110021 -0.024800 -0.335867 -13.591691 -11.499261 -0.507755 0.000000 0.000000 0.000000
-100.545113 83.396632 333.820874 -0.822181 1.136051 -52.058246 0.088616 0.107724 52.032213 0.080974 -0.026804 -0.036231 -1.444970 -0.255858 0.226503 0.000000 0.000000 0.000000 -0.175074 -1.512267 0.341348 0.037715 2.971149 0.424325 -0.399121 -2.625978 -1.075874 1.707325 -1.118175 -0.032161 0.000000 0.000000 0.000000 0.000000 0.000000 0.000000 -1.052620 1.106589 -0.167547 1.260504 -0.414502 0.547006 2.786091 0.309489 -1.210639 0.066252 -28.209697 4.159896 0.000000 0.000000 0.000000 0.000000 0.000000 0.000000 0.338662 -0.574305 52.088237 -1.135522 2.380448 -0.662716 -0.779969 -5.115607 2.760861 0.000000 0.000000 0.000000 -1.589573 -0.704017 51.797400 0.086055 0.098794 -0.335416 -13.846133 -11.611795 -0.213664 0.000000 0.000000 0.000000
-100.416931 83.380312 333.974218 -0.906151 1.149674 -52.102825 0.097479 0.102761 52.075113 0.080370 -0.038523 -0.039401 -1.605237 -0.340951 0.317215 0.000000 0.000000 0.000000 -0.236552 -1.595790 0.398466 -0.047744 3.093032 0.392051 -0.351281 -2.428798 -1.096002 2.333773 -1.353827 -0.121589 0.000000 0.000000 0.000000 0.000000 0.000000 0.000000 -1.245053 1.019477 -0.231980 1.701974 -0.423677 0.583908 1.793820 1.063532 -1.006922 0.881150 -27.271047 3.551125 0.000000 0.000000 0.000000 0.000000 0.000000 0.000000 0.474638 -0.674614 52.186225 -1.136907 2.825952 -0.757900 -3.383687 -7.747569 3.673770 0.000000 0.000000 0.000000 -1.677815 -0.790889 51.822949 0.296201 0.256068 -0.330596 -13.969807 -11.752051 -0.095525 0.000000 0.000000 0.000000
